<svg class="typst-doc" viewBox="0 0 595.2755905511812 841.8897637795276" width="595.2755905511812pt" height="841.8897637795276pt" xmlns="http://www.w3.org/2000/svg" xmlns:xlink="http://www.w3.org/1999/xlink" xmlns:h5="http://www.w3.org/1999/xhtml">
    <path class="typst-shape" fill="#ffffff" fill-rule="nonzero" d="M 0 0v 841.8898 h 595.2756 v -841.8898 Z "/>
    <g>
        <g class="typst-text" transform="matrix(1 0 0 -1 70.86614173228347 78.10414173228347)">
            <use xlink:href="#g9560FEC06734E6CFF56B418E549F5DD0" x="0" y="0" fill="#000000" fill-rule="nonzero"/>
            <use xlink:href="#g8D0393A7BEFBFBA895105A00CC2ED3E8" x="5.115" y="0" fill="#000000" fill-rule="nonzero"/>
            <use xlink:href="#g786417740E8490E5B083A587BA0CA9F7" x="12.98" y="0" fill="#000000" fill-rule="nonzero"/>
            <use xlink:href="#gA85BA0978C7077D2DFE22CCEFFC818C3" x="19.03" y="0" fill="#000000" fill-rule="nonzero"/>
            <use xlink:href="#gDDB3E315011D0D74D50A77DCFC478D4A" x="27.830000000000002" y="0" fill="#000000" fill-rule="nonzero"/>
            <use xlink:href="#g63F2B98FB6EAD669F85DBF11D37ADD7F" x="36.52" y="0" fill="#000000" fill-rule="nonzero"/>
            <use xlink:href="#g8AB10B199A868879AA3E87CE6BDB6AB" x="41.547000000000004" y="0" fill="#000000" fill-rule="nonzero"/>
            <use xlink:href="#gD9F1B0B2C5CB7F0C3FFEF9D9C822FAEB" x="45.639" y="0" fill="#000000" fill-rule="nonzero"/>
            <use xlink:href="#gC38CB216EC83732D50F5BFA9FEA83027" x="51.139" y="0" fill="#000000" fill-rule="nonzero"/>
            <use xlink:href="#g10B3BCD712B3575D9643E3F08A15266" x="54.120000000000005" y="0" fill="#000000" fill-rule="nonzero"/>
            <use xlink:href="#gB24DE200F61BE45B70AA0C65937BDDC4" x="62.83200000000001" y="0" fill="#000000" fill-rule="nonzero"/>
            <use xlink:href="#g8D0393A7BEFBFBA895105A00CC2ED3E8" x="67.947" y="0" fill="#000000" fill-rule="nonzero"/>
            <use xlink:href="#g786417740E8490E5B083A587BA0CA9F7" x="75.812" y="0" fill="#000000" fill-rule="nonzero"/>
            <use xlink:href="#gA85BA0978C7077D2DFE22CCEFFC818C3" x="81.862" y="0" fill="#000000" fill-rule="nonzero"/>
            <use xlink:href="#gDDB3E315011D0D74D50A77DCFC478D4A" x="90.66199999999999" y="0" fill="#000000" fill-rule="nonzero"/>
            <use xlink:href="#g63F2B98FB6EAD669F85DBF11D37ADD7F" x="99.35199999999999" y="0" fill="#000000" fill-rule="nonzero"/>
            <use xlink:href="#g8AB10B199A868879AA3E87CE6BDB6AB" x="104.37899999999999" y="0" fill="#000000" fill-rule="nonzero"/>
            <use xlink:href="#gD9F1B0B2C5CB7F0C3FFEF9D9C822FAEB" x="108.47099999999999" y="0" fill="#000000" fill-rule="nonzero"/>
            <use xlink:href="#gC38CB216EC83732D50F5BFA9FEA83027" x="113.97099999999999" y="0" fill="#000000" fill-rule="nonzero"/>
            <use xlink:href="#g10B3BCD712B3575D9643E3F08A15266" x="116.95199999999998" y="0" fill="#000000" fill-rule="nonzero"/>
        </g>
        <g class="typst-group">
            <g>
                <path class="typst-shape" fill="none" stroke="#000000" stroke-width="1" stroke-linecap="butt" stroke-linejoin="miter" stroke-miterlimit="4" transform="matrix(1 0 0 1 70.86614173228347 90.80414173228347)" d="M 0 0v 104.703 "/>
                <path class="typst-shape" fill="none" stroke="#000000" stroke-width="1" stroke-linecap="butt" stroke-linejoin="miter" stroke-miterlimit="4" transform="matrix(1 0 0 1 174.11314173228348 90.80414173228347)" d="M 0 0v 104.703 "/>
                <path class="typst-shape" fill="none" stroke="#000000" stroke-width="1" stroke-linecap="butt" stroke-linejoin="miter" stroke-miterlimit="4" transform="matrix(1 0 0 1 199.45814173228348 90.80414173228347)" d="M 0 0v 104.703 "/>
                <path class="typst-shape" fill="none" stroke="#000000" stroke-width="1" stroke-linecap="butt" stroke-linejoin="miter" stroke-miterlimit="4" transform="matrix(1 0 0 1 70.36614173228347 91.30414173228347)" d="M 0 0h 129.592 "/>
                <path class="typst-shape" fill="none" stroke="#000000" stroke-width="1" stroke-linecap="butt" stroke-linejoin="miter" stroke-miterlimit="4" transform="matrix(1 0 0 1 70.36614173228347 108.54214173228347)" d="M 0 0h 129.592 "/>
                <path class="typst-shape" fill="none" stroke="#000000" stroke-width="1" stroke-linecap="butt" stroke-linejoin="miter" stroke-miterlimit="4" transform="matrix(1 0 0 1 70.36614173228347 125.78014173228347)" d="M 0 0h 129.592 "/>
                <path class="typst-shape" fill="none" stroke="#000000" stroke-width="1" stroke-linecap="butt" stroke-linejoin="miter" stroke-miterlimit="4" transform="matrix(1 0 0 1 70.36614173228347 143.01814173228345)" d="M 0 0h 129.592 "/>
                <path class="typst-shape" fill="none" stroke="#000000" stroke-width="1" stroke-linecap="butt" stroke-linejoin="miter" stroke-miterlimit="4" transform="matrix(1 0 0 1 70.36614173228347 160.25614173228345)" d="M 0 0h 129.592 "/>
                <path class="typst-shape" fill="none" stroke="#000000" stroke-width="1" stroke-linecap="butt" stroke-linejoin="miter" stroke-miterlimit="4" transform="matrix(1 0 0 1 70.36614173228347 177.76914173228346)" d="M 0 0h 129.592 "/>
                <path class="typst-shape" fill="none" stroke="#000000" stroke-width="1" stroke-linecap="butt" stroke-linejoin="miter" stroke-miterlimit="4" transform="matrix(1 0 0 1 70.36614173228347 195.00714173228346)" d="M 0 0h 129.592 "/>
                <g class="typst-text" transform="matrix(1 0 0 -1 75.86614173228347 103.54214173228347)">
                    <use xlink:href="#g824664ECC1FB3ED9833AEB5178E5B3E2" x="0" y="0" fill="#000000" fill-rule="nonzero"/>
                    <use xlink:href="#g5598BB13D9F71BF5A4E3BFBD2AAD6D9F" x="5.335" y="0" fill="#000000" fill-rule="nonzero"/>
                    <use xlink:href="#gC38CB216EC83732D50F5BFA9FEA83027" x="8.811" y="0" fill="#000000" fill-rule="nonzero"/>
                    <use xlink:href="#gCE00C993849A113142497A034B3F3802" x="11.792" y="0" fill="#000000" fill-rule="nonzero"/>
                    <use xlink:href="#gC1B12BA8F6B6D85D232A7278892B02C7" x="16.5" y="0" fill="#000000" fill-rule="nonzero"/>
                    <use xlink:href="#g25F69C89BBA58725CE230A03CED242D2" x="22.131999999999998" y="0" fill="#000000" fill-rule="nonzero"/>
                    <use xlink:href="#g8AB10B199A868879AA3E87CE6BDB6AB" x="27.049" y="0" fill="#000000" fill-rule="nonzero"/>
                    <use xlink:href="#g6B3EBD7FB8981FB09E8A8B4A29A05AFC" x="33.891" y="0" fill="#000000" fill-rule="nonzero"/>
                    <use xlink:href="#gC38CB216EC83732D50F5BFA9FEA83027" x="38.181" y="0" fill="#000000" fill-rule="nonzero"/>
                    <use xlink:href="#g8DFC1D5A957BFC9599B4D85C178B9AD3" x="41.162" y="0" fill="#000000" fill-rule="nonzero"/>
                    <use xlink:href="#g25F69C89BBA58725CE230A03CED242D2" x="45.826" y="0" fill="#000000" fill-rule="nonzero"/>
                    <use xlink:href="#g3CC3102D01A26978540B418EFF3BBE4D" x="53.493" y="0" fill="#000000" fill-rule="nonzero"/>
                    <use xlink:href="#gDDB3E315011D0D74D50A77DCFC478D4A" x="56.771" y="0" fill="#000000" fill-rule="nonzero"/>
                    <use xlink:href="#gDDB3E315011D0D74D50A77DCFC478D4A" x="65.461" y="0" fill="#000000" fill-rule="nonzero"/>
                    <use xlink:href="#g523F7EF6A98CA34D23B1B0C73A3E0F04" x="74.151" y="0" fill="#000000" fill-rule="nonzero"/>
                </g>
                <g class="typst-text" transform="matrix(1 0 0 -1 179.11314173228348 103.54214173228347)">
                    <use xlink:href="#gEEBB457E25465403BC8779214129FA07" x="0" y="0" fill="#000000" fill-rule="nonzero"/>
                </g>
                <g class="typst-text" transform="matrix(1 0 0 -1 75.86614173228347 120.78014173228347)">
                    <use xlink:href="#gFDC8B69DB71C675D4462B9D3649A13EC" x="0" y="0" fill="#000000" fill-rule="nonzero"/>
                    <use xlink:href="#g63F2B98FB6EAD669F85DBF11D37ADD7F" x="9.229" y="0" fill="#000000" fill-rule="nonzero"/>
                    <use xlink:href="#g5598BB13D9F71BF5A4E3BFBD2AAD6D9F" x="14.256" y="0" fill="#000000" fill-rule="nonzero"/>
                    <use xlink:href="#g25F69C89BBA58725CE230A03CED242D2" x="17.732" y="0" fill="#000000" fill-rule="nonzero"/>
                    <use xlink:href="#g8AB10B199A868879AA3E87CE6BDB6AB" x="22.649" y="0" fill="#000000" fill-rule="nonzero"/>
                    <use xlink:href="#gC38CB216EC83732D50F5BFA9FEA83027" x="26.741" y="0" fill="#000000" fill-rule="nonzero"/>
                    <use xlink:href="#g63F2B98FB6EAD669F85DBF11D37ADD7F" x="29.722" y="0" fill="#000000" fill-rule="nonzero"/>
                    <use xlink:href="#g444845D5AE913EE257C23A1D77DCBE80" x="34.749" y="0" fill="#000000" fill-rule="nonzero"/>
                    <use xlink:href="#gBD2B8A190A2023EE87190265C91826F8" x="40.403000000000006" y="0" fill="#000000" fill-rule="nonzero"/>
                    <use xlink:href="#gC38CB216EC83732D50F5BFA9FEA83027" x="48.620000000000005" y="0" fill="#000000" fill-rule="nonzero"/>
                    <use xlink:href="#g4DD66DF811BB9B1544E58F002DD133BF" x="51.601000000000006" y="0" fill="#000000" fill-rule="nonzero"/>
                    <use xlink:href="#g5598BB13D9F71BF5A4E3BFBD2AAD6D9F" x="57.16700000000001" y="0" fill="#000000" fill-rule="nonzero"/>
                    <use xlink:href="#gD1946A413A4D53ED6E23AD42C4E7F843" x="60.64300000000001" y="0" fill="#000000" fill-rule="nonzero"/>
                    <use xlink:href="#g3CC3102D01A26978540B418EFF3BBE4D" x="69.311" y="0" fill="#000000" fill-rule="nonzero"/>
                    <use xlink:href="#gDDB3E315011D0D74D50A77DCFC478D4A" x="72.58900000000001" y="0" fill="#000000" fill-rule="nonzero"/>
                    <use xlink:href="#gDDB3E315011D0D74D50A77DCFC478D4A" x="81.27900000000001" y="0" fill="#000000" fill-rule="nonzero"/>
                    <use xlink:href="#g523F7EF6A98CA34D23B1B0C73A3E0F04" x="89.96900000000001" y="0" fill="#000000" fill-rule="nonzero"/>
                </g>
                <g class="typst-text" transform="matrix(1 0 0 -1 75.86614173228347 138.01814173228345)">
                    <use xlink:href="#g62BFACB1B22D15D6051B5E911244AC20" x="0" y="0" fill="#000000" fill-rule="nonzero"/>
                    <use xlink:href="#g9DF62F7262AC2ECF7184C2B7AECE88FB" x="7.688999999999999" y="0" fill="#000000" fill-rule="nonzero"/>
                    <use xlink:href="#gDDB3E315011D0D74D50A77DCFC478D4A" x="13.53" y="0" fill="#000000" fill-rule="nonzero"/>
                    <use xlink:href="#g2CDB44E9EFC9D60B59AB2EC00DE8BF10" x="22.22" y="0" fill="#000000" fill-rule="nonzero"/>
                    <use xlink:href="#g25F69C89BBA58725CE230A03CED242D2" x="27.753" y="0" fill="#000000" fill-rule="nonzero"/>
                    <use xlink:href="#g8AB10B199A868879AA3E87CE6BDB6AB" x="32.67" y="0" fill="#000000" fill-rule="nonzero"/>
                    <use xlink:href="#g52F94149B30B9519491207BDBF38E46E" x="39.512" y="0" fill="#000000" fill-rule="nonzero"/>
                    <use xlink:href="#g90E1B01636FBED1CFCE1EB7F1B2EEB0C" x="45.056" y="0" fill="#000000" fill-rule="nonzero"/>
                    <use xlink:href="#g6B3EBD7FB8981FB09E8A8B4A29A05AFC" x="51.215999999999994" y="0" fill="#000000" fill-rule="nonzero"/>
                    <use xlink:href="#g5598BB13D9F71BF5A4E3BFBD2AAD6D9F" x="55.50599999999999" y="0" fill="#000000" fill-rule="nonzero"/>
                    <use xlink:href="#gC38CB216EC83732D50F5BFA9FEA83027" x="58.98199999999999" y="0" fill="#000000" fill-rule="nonzero"/>
                    <use xlink:href="#gCE00C993849A113142497A034B3F3802" x="61.962999999999994" y="0" fill="#000000" fill-rule="nonzero"/>
                    <use xlink:href="#gC1B12BA8F6B6D85D232A7278892B02C7" x="66.67099999999999" y="0" fill="#000000" fill-rule="nonzero"/>
                    <use xlink:href="#g25F69C89BBA58725CE230A03CED242D2" x="72.303" y="0" fill="#000000" fill-rule="nonzero"/>
                    <use xlink:href="#g8AB10B199A868879AA3E87CE6BDB6AB" x="77.22" y="0" fill="#000000" fill-rule="nonzero"/>
                    <use xlink:href="#g6B3EBD7FB8981FB09E8A8B4A29A05AFC" x="81.312" y="0" fill="#000000" fill-rule="nonzero"/>
                </g>
                <g class="typst-group">
                    <g>
                        <g class="typst-text" transform="matrix(1 0 0 -1 75.86614173228347 155.25614173228345)">
                            <use xlink:href="#gFDC8B69DB71C675D4462B9D3649A13EC" x="0" y="0" fill="#000000" fill-rule="nonzero"/>
                            <use xlink:href="#g63F2B98FB6EAD669F85DBF11D37ADD7F" x="9.229" y="0" fill="#000000" fill-rule="nonzero"/>
                            <use xlink:href="#g5598BB13D9F71BF5A4E3BFBD2AAD6D9F" x="14.256" y="0" fill="#000000" fill-rule="nonzero"/>
                            <use xlink:href="#g25F69C89BBA58725CE230A03CED242D2" x="17.732" y="0" fill="#000000" fill-rule="nonzero"/>
                            <use xlink:href="#g8AB10B199A868879AA3E87CE6BDB6AB" x="22.649" y="0" fill="#000000" fill-rule="nonzero"/>
                            <use xlink:href="#gC38CB216EC83732D50F5BFA9FEA83027" x="26.741" y="0" fill="#000000" fill-rule="nonzero"/>
                            <use xlink:href="#g63F2B98FB6EAD669F85DBF11D37ADD7F" x="29.722" y="0" fill="#000000" fill-rule="nonzero"/>
                            <use xlink:href="#g444845D5AE913EE257C23A1D77DCBE80" x="34.749" y="0" fill="#000000" fill-rule="nonzero"/>
                            <use xlink:href="#g444845D5AE913EE257C23A1D77DCBE80" x="40.403000000000006" y="0" fill="#000000" fill-rule="nonzero"/>
                            <use xlink:href="#g25F69C89BBA58725CE230A03CED242D2" x="43.307" y="0" fill="#000000" fill-rule="nonzero"/>
                            <use xlink:href="#g10B3BCD712B3575D9643E3F08A15266" x="48.224000000000004" y="0" fill="#000000" fill-rule="nonzero"/>
                            <use xlink:href="#gD9F1B0B2C5CB7F0C3FFEF9D9C822FAEB" x="54.18600000000001" y="0" fill="#000000" fill-rule="nonzero"/>
                            <use xlink:href="#g5598BB13D9F71BF5A4E3BFBD2AAD6D9F" x="59.68600000000001" y="0" fill="#000000" fill-rule="nonzero"/>
                            <use xlink:href="#gD1946A413A4D53ED6E23AD42C4E7F843" x="63.162000000000006" y="0" fill="#000000" fill-rule="nonzero"/>
                        </g>
                        <g class="typst-text" transform="matrix(1 0 0 -1 179.11314173228348 155.25614173228345)">
                            <use xlink:href="#gA2CCDA6D35359E2332180ADE5D862602" x="0" y="0" fill="#000000" fill-rule="nonzero"/>
                            <use xlink:href="#gCA6900B589667EAA5A7266372A13F109" x="5.115" y="0" fill="#000000" fill-rule="nonzero"/>
                            <use xlink:href="#g8F7DCDDCA4FFFF614CB0E92B6931681F" x="7.535" y="0" fill="#000000" fill-rule="nonzero"/>
                        </g>
                    </g>
                </g>
                <g class="typst-group">
                    <g>
                        <g class="typst-text" transform="matrix(1 0 0 -1 75.86614173228347 172.76914173228346)">
                            <use xlink:href="#gEB22A8F781F797C1625BBD7FE47881EC" x="0" y="0" fill="#000000" fill-rule="nonzero"/>
                            <use xlink:href="#g8AB10B199A868879AA3E87CE6BDB6AB" x="5.9510000000000005" y="0" fill="#000000" fill-rule="nonzero"/>
                            <use xlink:href="#gC38CB216EC83732D50F5BFA9FEA83027" x="10.043" y="0" fill="#000000" fill-rule="nonzero"/>
                            <use xlink:href="#gCE00C993849A113142497A034B3F3802" x="13.024" y="0" fill="#000000" fill-rule="nonzero"/>
                            <use xlink:href="#g25F69C89BBA58725CE230A03CED242D2" x="17.732" y="0" fill="#000000" fill-rule="nonzero"/>
                            <use xlink:href="#gA4BA3B9C7DD0895DE21BD8AE6900F444" x="25.399" y="0" fill="#000000" fill-rule="nonzero"/>
                            <use xlink:href="#g25F69C89BBA58725CE230A03CED242D2" x="31.185000000000002" y="0" fill="#000000" fill-rule="nonzero"/>
                            <use xlink:href="#g8AB10B199A868879AA3E87CE6BDB6AB" x="36.102000000000004" y="0" fill="#000000" fill-rule="nonzero"/>
                        </g>
                        <g class="typst-text" transform="matrix(1 0 0 -1 118.81014173228345 172.76914173228346)">
                            <use xlink:href="#g2EE59D2C8E5C69BB66E163836CD48E2F" x="0" y="0" fill="#000000" fill-rule="nonzero"/>
                        </g>
                        <g class="typst-text" transform="matrix(1 0 0 -1 128.46814173228347 168.77614173228346)">
                            <use xlink:href="#g13E22B5426ADC2B260B67F26B33416C6" x="0" y="0" fill="#000000" fill-rule="nonzero"/>
                        </g>
                    </g>
                </g>
                <g class="typst-group">
                    <g>
                        <g class="typst-text" transform="matrix(1 0 0 -1 75.86614173228347 190.00714173228346)">
                            <use xlink:href="#gEB22A8F781F797C1625BBD7FE47881EC" x="0" y="0" fill="#000000" fill-rule="nonzero"/>
                            <use xlink:href="#g8AB10B199A868879AA3E87CE6BDB6AB" x="5.9510000000000005" y="0" fill="#000000" fill-rule="nonzero"/>
                            <use xlink:href="#gC38CB216EC83732D50F5BFA9FEA83027" x="10.043" y="0" fill="#000000" fill-rule="nonzero"/>
                            <use xlink:href="#gCE00C993849A113142497A034B3F3802" x="13.024" y="0" fill="#000000" fill-rule="nonzero"/>
                            <use xlink:href="#g25F69C89BBA58725CE230A03CED242D2" x="17.732" y="0" fill="#000000" fill-rule="nonzero"/>
                        </g>
                        <g class="typst-text" transform="matrix(1 0 0 -1 179.11314173228348 190.00714173228346)">
                            <use xlink:href="#g4AE8ECD7A6D56B08F357B6EBE8FC7F08" x="0" y="0" fill="#000000" fill-rule="nonzero"/>
                            <use xlink:href="#gB24DE200F61BE45B70AA0C65937BDDC4" x="5.115" y="0" fill="#000000" fill-rule="nonzero"/>
                            <use xlink:href="#g9560FEC06734E6CFF56B418E549F5DD0" x="10.23" y="0" fill="#000000" fill-rule="nonzero"/>
                        </g>
                    </g>
                </g>
            </g>
        </g>
    </g>
    <defs id="glyph">
        <symbol id="g9560FEC06734E6CFF56B418E549F5DD0" overflow="visible">
            <path d="M 0 0m 0.671 5.148 c 0 -0.23099995 0.20899999 -0.4289999 0.43999994 -0.4289999 c 0.18700004 0 0.5170001 0.19799995 0.5170001 0.44000006 c 0 0.08799982 -0.022000074 0.15400028 -0.04400003 0.23099995 c -0.021999955 0.07700014 -0.08799994 0.17600012 -0.08799994 0.26399994 c 0 0.2750001 0.2859999 0.671 1.089 0.671 c 0.3959999 0 0.957 -0.27499962 0.957 -1.3309999 c 0 -0.704 -0.25300002 -1.276 -0.9020002 -1.9359999 l -0.8139999 -0.8030002 c -1.078 -1.0999999 -1.254 -1.6279999 -1.254 -2.277 c 0 0 0.561 0.022 0.913 0.022 h 1.9250001 c 0.352 0 0.85800004 -0.022 0.85800004 -0.022 c 0.14299965 0.583 0.25299978 1.408 0.26399994 1.7379999 c -0.065999985 0.055000067 -0.20900011 0.07700002 -0.31900024 0.055000067 c -0.1869998 -0.781 -0.37399983 -1.056 -0.76999974 -1.056 h -1.9580001 c 0 0.52800006 0.75899994 1.276 0.814 1.3310001 l 1.1110001 1.0669999 c 0.6270001 0.605 1.0999997 1.0890002 1.0999997 1.9250002 c 0 1.1879997 -0.9679997 1.6719999 -1.8589997 1.6719999 c -1.2210001 0 -1.98 -0.90199995 -1.98 -1.5620003 Z "/>
        </symbol>
        <symbol id="g8D0393A7BEFBFBA895105A00CC2ED3E8" overflow="visible">
            <path d="M 0 0m 2.508 -0.11 c 0.8470001 0 2.1340003 0.85800004 2.1340003 3.4429998 c 0 1.089 -0.26400042 2.024 -0.74800014 2.662 c -0.286 0.38500023 -0.74800014 0.71500015 -1.342 0.71500015 c -1.0890001 0 -2.1230001 -1.2979999 -2.1230001 -3.476 c 0 -1.177 0.363 -2.277 0.96799994 -2.882 c 0.3080001 -0.308 0.68200004 -0.462 1.111 -0.462 Z m 0.04400015 6.435 c 0.18700004 0 0.36299992 -0.065999985 0.4949999 -0.1869998 c 0.34100008 -0.28600025 0.638 -1.1220002 0.638 -2.596 c 0 -1.0120001 -0.032999992 -1.705 -0.18700004 -2.266 c -0.24199986 -0.902 -0.7809999 -1.001 -0.97899985 -1.001 c -1.023 0 -1.133 1.8809999 -1.133 2.8379998 c 0 2.7059999 0.6709999 3.212 1.166 3.212 Z "/>
        </symbol>
        <symbol id="g786417740E8490E5B083A587BA0CA9F7" overflow="visible">
            <path d="M 0 0m 2.75 4.785 v -1.7489998 h -1.815 c -0.13200003 0 -0.27500004 -0.20900011 -0.27500004 -0.37400007 c 0 -0.08800006 0.066000044 -0.17599988 0.16500002 -0.17599988 h 1.925 v -1.8700001 c 0 -0.09899998 0.08800006 -0.16499999 0.17599988 -0.16499999 c 0.1650002 0 0.37400007 0.14299998 0.37400007 0.275 v 1.76 h 1.793 c 0.14300013 0 0.29699993 0.25300002 0.29699993 0.36299992 c 0 0.08800006 -0.043999672 0.18700004 -0.1539998 0.18700004 h -1.9360001 v 1.892 c 0 0.11000013 -0.09899998 0.1539998 -0.18700004 0.1539998 c -0.109999895 0 -0.36299992 -0.1539998 -0.36299992 -0.29699993 Z "/>
        </symbol>
        <symbol id="gA85BA0978C7077D2DFE22CCEFFC818C3" overflow="visible">
            <path d="M 0 0m 5.104 3.399 c 0.14299965 0 0.29699993 0.25300002 0.29699993 0.36300015 c 0 0.08799982 -0.04400015 0.1869998 -0.15400028 0.1869998 h -4.312 c -0.13200003 0 -0.27500004 -0.20899987 -0.27500004 -0.37399983 c 0 -0.08800006 0.066000044 -0.17600012 0.16500002 -0.17600012 Z m 0 -1.826 c 0.14299965 0 0.29699993 0.25300002 0.29699993 0.36300004 c 0 0.08799994 -0.04400015 0.18699992 -0.15400028 0.18699992 h -4.312 c -0.13200003 0 -0.27500004 -0.20899987 -0.27500004 -0.37399995 c 0 -0.08799994 0.066000044 -0.176 0.16500002 -0.176 Z "/>
        </symbol>
        <symbol id="gDDB3E315011D0D74D50A77DCFC478D4A" overflow="visible">
            <path d="M 0 0m 1.87 3.938 c -0.011000037 0.33000016 -0.032999992 0.7260001 -0.08800006 0.8360002 c -0.021999955 0.05499983 -0.04399991 0.08799982 -0.13199997 0.08799982 c -0.30799997 -0.12099981 -0.594 -0.21999979 -1.3529999 -0.31900024 c -0.021999985 -0.065999985 0 -0.24199963 0.022000015 -0.3079996 c 0.594 -0.055000305 0.71500003 -0.11000013 0.71500003 -0.74800014 v -2.145 c 0 -0.902 -0.14300007 -0.957 -0.748 -1.001 c -0.066000015 -0.065999985 -0.066000015 -0.297 0 -0.36299998 c 0.32999998 0.011 0.748 0.022 1.188 0.022 c 0.44000006 0 0.7809999 -0.011 1.1110001 -0.022 c 0.065999985 0.066 0.065999985 0.297 0 0.36299998 c -0.5610001 0.055000007 -0.68200004 0.09900001 -0.68200004 1.001 v 1.8039999 c 0 0.23100019 0.0990001 0.36300015 0.18699992 0.46200013 c 0.44000006 0.42900014 0.8470001 0.6489999 1.188 0.6489999 c 0.41800022 0 0.7260003 -0.26399994 0.7260003 -1.0009999 v -1.914 c 0 -0.902 -0.0880003 -0.957 -0.68200016 -1.001 c -0.055000067 -0.065999985 -0.055000067 -0.297 0 -0.36299998 c 0.27499986 0.011 0.68200016 0.022 1.1219997 0.022 c 0.44000006 0 0.803 -0.011 1.0780001 -0.022 c 0.055000305 0.066 0.055000305 0.297 0 0.36299998 c -0.5499997 0.044 -0.6489997 0.09900001 -0.6489997 1.001 v 1.7490001 c 0 0.1539998 0 0.30799985 -0.011000156 0.43999982 c 0.5279999 0.58299994 1.0229998 0.7260001 1.4520001 0.7260001 c 0.41799974 0 0.65999985 -0.2420001 0.65999985 -0.9790001 v -1.9359999 c 0 -0.902 -0.11000013 -0.957 -0.68200016 -1.001 c -0.05499983 -0.065999985 -0.05499983 -0.297 0 -0.36299998 c 0.2750001 0.011 0.68200016 0.022 1.1220002 0.022 c 0.44000006 0 0.8250003 -0.011 1.1329999 -0.022 c 0.055000305 0.066 0.055000305 0.297 0 0.36299998 c -0.605 0.044 -0.704 0.09900001 -0.704 1.001 v 1.7379999 c 0 0.9790001 -0.16499996 1.7490001 -1.1329999 1.7490001 c -0.5609999 0 -1.243 -0.20900011 -1.815 -0.8140001 c -0.032999992 -0.032999992 -0.09899998 -0.08799982 -0.12099981 0.011000156 c -0.09899998 0.45099974 -0.52800035 0.803 -1.1000001 0.803 c -0.638 0 -1.21 -0.37400007 -1.6719999 -0.89100003 c -0.055000067 -0.055000067 -0.12100005 -0.13199997 -0.13200009 0 Z "/>
        </symbol>
        <symbol id="g63F2B98FB6EAD669F85DBF11D37ADD7F" overflow="visible">
            <path d="M 0 0m 3.223 0.528 c 0.065999985 -0.341 0.18700004 -0.638 0.737 -0.638 c 0.41799974 0 0.8140001 0.187 1.0450001 0.407 c -0.022000313 0.132 -0.065999985 0.231 -0.18700027 0.297 c -0.076999664 -0.065999985 -0.26399994 -0.176 -0.40700006 -0.176 c -0.31899977 0 -0.32999992 0.42900002 -0.32999992 0.93500006 v 1.617 c 0 1.562 -0.8579998 1.859 -1.6609998 1.859 c -0.90200007 0 -1.815 -0.59399986 -1.815 -1.221 c 0 -0.26400018 0.13199997 -0.39600015 0.385 -0.39600015 c 0.319 0 0.51699996 0.23100019 0.51699996 0.37400007 c 0 0.0769999 -0.010999918 0.15400004 -0.032999992 0.19799995 c -0.011000037 0.032999992 -0.021999955 0.09899998 -0.021999955 0.22000027 c 0 0.3409996 0.462 0.4619999 0.88 0.4619999 c 0.37400007 0 0.89100003 -0.18700027 0.89100003 -1.4300001 c 0 -0.07700014 -0.032999992 -0.12100005 -0.065999985 -0.13199997 l -0.9460001 -0.23099995 c -1.056 -0.26400018 -1.8149999 -0.8470001 -1.8149999 -1.5950001 c 0 -0.90199995 0.61599994 -1.188 1.3859999 -1.188 c 0.3850001 0 0.71500003 0.088 1.199 0.462 l 0.22000003 0.176 Z m 0 2.0349998 v -1.452 c 0 -0.14299995 -0.065999985 -0.21999997 -0.15400004 -0.28599995 c -0.286 -0.231 -0.6600001 -0.484 -0.96799994 -0.484 c -0.5500001 0 -0.79200006 0.44000003 -0.79200006 0.781 c 0 0.495 0.23099995 1.0009999 1.0450001 1.21 Z "/>
        </symbol>
        <symbol id="g8AB10B199A868879AA3E87CE6BDB6AB" overflow="visible">
            <path d="M 0 0m 1.936 3.938 c -0.021999955 0.43999982 -0.032999992 0.7260001 -0.08799994 0.8360002 c -0.022000074 0.05499983 -0.04400003 0.08799982 -0.13200009 0.08799982 c -0.30799997 -0.12099981 -0.594 -0.21999979 -1.3529999 -0.31900024 c -0.022000015 -0.065999985 0 -0.24199963 0.021999985 -0.3079996 c 0.594 -0.055000305 0.71500003 -0.11000013 0.71500003 -0.74800014 v -2.145 c 0 -0.913 -0.13200003 -0.957 -0.814 -1.001 c -0.066000015 -0.065999985 -0.066000015 -0.297 0 -0.36299998 c 0.385 0.011 0.814 0.022 1.254 0.022 c 0.44000006 0 0.9460001 -0.011 1.3310001 -0.022 c 0.065999985 0.066 0.065999985 0.297 0 0.36299998 c -0.77 0.055000007 -0.90200007 0.088 -0.90200007 1.001 v 1.529 c 0 0.286 0.13200009 0.53900003 0.26400006 0.737 c 0.12100005 0.17599988 0.37399983 0.5389998 0.50600004 0.5389998 c 0.09899998 0 0.19799995 -0.021999836 0.286 -0.14299965 c 0.0769999 -0.11000013 0.20899987 -0.25300026 0.3959999 -0.25300026 c 0.26399994 0 0.51699996 0.2750001 0.51699996 0.5500002 c 0 0.20899963 -0.19799995 0.5279999 -0.6600001 0.5279999 c -0.51699996 0 -0.96799994 -0.4840002 -1.221 -0.9130001 c -0.065999985 -0.12099981 -0.12099993 -0.032999992 -0.12099993 0.022000074 Z "/>
        </symbol>
        <symbol id="gD9F1B0B2C5CB7F0C3FFEF9D9C822FAEB" overflow="visible">
            <path d="M 0 0m 4.884 4.257 c 0.20900011 0 0.40700006 0.19799995 0.40700006 0.41800022 c 0 0.23099995 -0.20900011 0.4069996 -0.50600004 0.4069996 c -0.28599977 0 -0.8139999 -0.1869998 -1.0999999 -0.5609999 c -0.13199997 0.0880003 -0.4949999 0.3080001 -1.144 0.3080001 c -0.97899985 0 -1.8809999 -0.65999985 -1.8809999 -1.6719999 c 0 -0.5940001 0.26400006 -0.9350002 0.572 -1.2320001 c -0.30799997 -0.26399994 -0.48399997 -0.737 -0.48399997 -1.111 c 0 -0.39600003 0.21999997 -0.704 0.5059999 -0.847 c -0.594 -0.352 -0.90199995 -0.858 -0.90199995 -1.331 c 0 -0.95700014 0.90199995 -1.2540001 1.7490001 -1.2540001 c 1.4849999 0 3.0909998 0.71500003 3.0909998 1.9030001 c 0 0.35199997 -0.16499996 0.627 -0.48399973 0.891 c -0.42900038 0.352 -1.1990001 0.36299998 -1.6060002 0.36299998 c -0.19799995 0 -0.47300005 -0.021999955 -0.737 -0.054999977 c -0.16499996 -0.011000007 -0.2750001 -0.021999985 -0.32999992 -0.021999985 c -0.31900012 0 -0.7040001 0.15399998 -0.7040001 0.627 c 0 0.22000003 0.065999985 0.45099998 0.19800007 0.638 c 0.26399994 -0.15400004 0.572 -0.23099995 1.0009999 -0.23099995 c 0.96799994 0 1.859 0.605 1.859 1.6829998 c 0 0.5170002 -0.1539998 0.8140001 -0.47300005 1.144 c 0.07700014 0.11000013 0.29699993 0.26399994 0.44000006 0.26399994 c 0.07700014 0 0.1539998 -0.032999992 0.22000027 -0.13199997 c 0.043999672 -0.08799982 0.1869998 -0.19799995 0.3079996 -0.19799995 Z m -3.4319997 -4.367 c 0.12099993 -0.033000007 0.29699993 -0.054999992 0.43999994 -0.054999992 c 0.34100008 0 0.6489999 0.032999992 0.803 0.032999992 c 0.54999995 0 1.0120001 -0.011000007 1.3310001 -0.187 c 0.4289999 -0.24199998 0.5609999 -0.39599997 0.5609999 -0.68200004 c 0 -0.79199994 -1.1659999 -1.2099999 -2.156 -1.2099999 c -0.3959999 0 -1.32 0.319 -1.32 1.0669999 c 0 0.37400007 0.022000074 0.64900005 0.34100008 1.034 Z m 2.0570002 3.179 c 0 -1.023 -0.51699996 -1.232 -0.924 -1.232 c -0.924 0 -1.023 0.781 -1.023 1.485 c 0 0.77 0.27499998 1.1659999 0.8799999 1.1659999 c 0.6930001 0 1.0670002 -0.50600004 1.0670002 -1.4189999 Z "/>
        </symbol>
        <symbol id="gC38CB216EC83732D50F5BFA9FEA83027" overflow="visible">
            <path d="M 0 0m 1.9909999 1.342 v 2.189 c 0 0.54999995 0.04400015 1.254 0.04400015 1.254 c 0 0.04400015 -0.055000067 0.07700014 -0.14300013 0.07700014 c -0.30799997 -0.12099981 -0.7479999 -0.21999979 -1.507 -0.31900024 c -0.021999985 -0.065999985 0 -0.24199963 0.022000015 -0.3079996 c 0.60499996 -0.055000305 0.715 -0.12100029 0.715 -0.74800014 v -2.145 c 0 -0.913 -0.12099993 -0.946 -0.792 -1.001 c -0.065999985 -0.065999985 -0.065999985 -0.297 0 -0.36299998 c 0.36300004 0.011 0.792 0.022 1.2320001 0.022 c 0.44000006 0 0.85800004 -0.011 1.221 -0.022 c 0.065999985 0.066 0.065999985 0.297 0 0.36299998 c -0.671 0.044 -0.79200006 0.088 -0.79200006 1.001 Z m -1.0009999 5.2469997 c 0 -0.28599977 0.26399994 -0.57199955 0.528 -0.57199955 c 0.30799997 0 0.5719999 0.29699993 0.5719999 0.5279999 c 0 0.26399994 -0.23099995 0.572 -0.5279999 0.572 c -0.26400006 0 -0.572 -0.26399994 -0.572 -0.52800035 Z "/>
        </symbol>
        <symbol id="g10B3BCD712B3575D9643E3F08A15266" overflow="visible">
            <path d="M 0 0m 2.024 3.938 c -0.065999985 -0.0769999 -0.13199997 -0.09899998 -0.13199997 0 c -0.010999918 0.29700017 -0.032999992 0.7260001 -0.08799994 0.8360002 c -0.022000074 0.05499983 -0.04400003 0.08799982 -0.13200009 0.08799982 c -0.30799997 -0.12099981 -0.594 -0.21999979 -1.3529999 -0.31900024 c -0.022000015 -0.065999985 0 -0.24199963 0.021999985 -0.3079996 c 0.594 -0.055000305 0.71500003 -0.11000013 0.71500003 -0.74800014 v -2.145 c 0 -0.902 -0.110000014 -0.946 -0.77 -1.001 c -0.066000015 -0.065999985 -0.066000015 -0.297 0 -0.36299998 c 0.32999998 0.011 0.77 0.022 1.21 0.022 c 0.43999994 0 0.77 -0.011 1.0999999 -0.022 c 0.065999985 0.066 0.065999985 0.297 0 0.36299998 c -0.5609999 0.055000007 -0.671 0.09900001 -0.671 1.001 v 1.8039999 c 0 0.23100019 0.09899998 0.36300015 0.18700004 0.46200013 c 0.41799998 0.40699983 0.9130001 0.6489999 1.342 0.6489999 c 0.22000003 0 0.45099998 -0.14300013 0.5830002 -0.3959999 c 0.10999966 -0.22000003 0.13199997 -0.5170002 0.13199997 -0.8470001 v -1.6719999 c 0 -0.902 -0.11000013 -0.946 -0.68200016 -1.001 c -0.055000067 -0.065999985 -0.055000067 -0.297 0 -0.36299998 c 0.32999992 0.011 0.68200016 0.022 1.1220002 0.022 c 0.43999958 0 0.83599997 -0.011 1.1659999 -0.022 c 0.05499983 0.066 0.05499983 0.297 0 0.36299998 c -0.6160002 0.055000007 -0.737 0.09900001 -0.737 1.001 v 1.6389999 c 0 0.605 -0.04400015 1.1329999 -0.29699993 1.474 c -0.18700027 0.2420001 -0.52800035 0.37400007 -0.9130001 0.37400007 c -0.53900003 0 -1.155 -0.14300013 -1.8040001 -0.89100003 Z "/>
        </symbol>
        <symbol id="gB24DE200F61BE45B70AA0C65937BDDC4" overflow="visible">
            <path d="M 0 0m 2.365 6.325 c 0.47300005 0 0.91299987 -0.28599977 0.91299987 -0.9899998 c 0 -0.5500002 -0.638 -1.3970001 -1.7269999 -1.5510001 l 0.054999948 -0.352 c 0.18700004 0.022000074 0.385 0.022000074 0.5280001 0.022000074 c 0.62699986 0 1.441 -0.17600012 1.441 -1.4189999 c 0 -1.463 -0.9790001 -1.7600001 -1.3640001 -1.7600001 c -0.561 0 -0.65999997 0.253 -0.79199994 0.451 c -0.110000014 0.15399998 -0.25300002 0.28599995 -0.47300005 0.28599995 c -0.231 0 -0.46199998 -0.20899999 -0.46199998 -0.385 c 0 -0.43999997 0.924 -0.737 1.5840001 -0.737 c 1.309 0 2.4749997 0.847 2.4749997 2.2989998 c 0 1.1990001 -0.9019997 1.628 -1.5509996 1.7380002 l -0.011000156 0.021999836 c 0.90199995 0.4289999 1.1550002 0.8800001 1.1550002 1.4630003 c 0 0.32999992 -0.07700014 0.59399986 -0.34100008 0.86899996 c -0.2420001 0.24199963 -0.6270001 0.4289999 -1.1990001 0.4289999 c -1.617 0 -2.079 -1.0560002 -2.079 -1.4190001 c 0 -0.1539998 0.109999955 -0.37400007 0.37399995 -0.37400007 c 0.38500005 0 0.42899996 0.36299992 0.42899996 0.572 c 0 0.704 0.75900006 0.83599997 1.0450001 0.83599997 Z "/>
        </symbol>
        <symbol id="g824664ECC1FB3ED9833AEB5178E5B3E2" overflow="visible">
            <path d="M 0 0m 4.345 6.941 c -0.6379998 0.08799982 -0.6159997 0.29699993 -1.6939998 0.29699993 c -1.1110001 0 -2.0900002 -0.737 -2.0900002 -1.9029999 c 0 -1.1550002 0.957 -1.6830001 1.9250001 -2.0570002 c 0.65999985 -0.25299978 1.474 -0.5609999 1.474 -1.6389999 c 0 -0.8909999 -0.49500012 -1.3529999 -1.375 -1.3529999 c -1.023 0 -1.6830001 0.473 -1.9250001 1.562 c -0.14299995 0.04399991 -0.25299996 0.021999955 -0.36299998 -0.03300011 c 0.044 -0.84699994 0.088 -1.1329999 0.22000003 -1.6719999 c 0.693 0 1.0009999 -0.25300002 1.98 -0.25300002 c 0.49500012 0 0.96799994 0.121 1.3529999 0.36299998 c 0.638 0.396 1.0339999 1.0669999 1.0339999 1.7709999 c 0 1.1660001 -0.87999964 1.6830001 -1.7819998 2.024 c -0.6600001 0.2420001 -1.76 0.6600003 -1.76 1.5840001 c 0 0.6160002 0.561 1.2319999 1.21 1.2319999 c 1.0669999 0 1.408 -0.6819997 1.6279998 -1.408 c 0.12100029 -0.021999836 0.26399994 -0.01099968 0.36299992 0.065999985 c -0.043999672 0.52800035 -0.08799982 0.83599997 -0.19799995 1.4190001 Z "/>
        </symbol>
        <symbol id="g5598BB13D9F71BF5A4E3BFBD2AAD6D9F" overflow="visible">
            <path d="M 0 0m 0.473 4.719 c -0.15399998 0 -0.19799998 -0.13199997 -0.19799998 -0.21999979 v -0.14300013 c 0 -0.05499983 0.011000007 -0.065999985 0.054999977 -0.065999985 h 0.649 v -3.3109999 c 0 -0.78099996 0.34099996 -1.089 0.847 -1.089 c 0.50600004 0 1.056 0.242 1.4849999 0.726 c -0.021999836 0.110000014 -0.08799982 0.176 -0.19799995 0.18699998 c -0.286 -0.21999997 -0.61599994 -0.30799997 -0.90199995 -0.30799997 c -0.29699993 0 -0.36299992 0.32999998 -0.36299992 1.012 v 2.783 h 1.144 c 0.109999895 0 0.26399994 0.04400015 0.26399994 0.14300013 v 0.21999979 c 0 0.04400015 -0.032999992 0.065999985 -0.08800006 0.065999985 h -1.3199999 v 0.4289999 c 0 0.71500015 0.04399991 1.1550002 0.04399991 1.1550002 c 0 0.065999985 -0.032999992 0.09899998 -0.08799994 0.09899998 c -0.04400003 0 -0.143 -0.04400015 -0.24199998 -0.09899998 c -0.12100005 -0.065999985 -0.23100007 -0.12099981 -0.37400007 -0.1539998 c -0.13199997 -0.04400015 -0.24199998 -0.07700014 -0.24199998 -0.15400028 c 0 -0.13199997 0.032999992 -0.05499983 0.032999992 -1.276 Z "/>
        </symbol>
        <symbol id="gCE00C993849A113142497A034B3F3802" overflow="visible">
            <path d="M 0 0m 4.378 1.001 c -0.043999672 0.09899998 -0.13199997 0.143 -0.23099995 0.15399992 c -0.37399983 -0.48399997 -0.8469999 -0.72599995 -1.3199999 -0.72599995 c -0.803 0 -1.4739999 0.814 -1.4739999 2.101 c 0 1.21 0.528 1.9360001 1.2539998 1.9360001 c 0.64900017 0 0.737 -0.38500023 0.78100014 -0.77 c 0.032999992 -0.29700017 0.18700004 -0.39600015 0.41799998 -0.39600015 c 0.23100019 0 0.5389998 0.14300013 0.5389998 0.48399997 c 0 0.605 -0.62699986 1.0450001 -1.6829998 1.0450001 c -1.089 0 -2.2549999 -0.9790001 -2.2549999 -2.541 c 0 -1.4190001 0.792 -2.398 2.178 -2.398 c 0.65999985 0 1.243 0.20899999 1.7929997 1.1110001 Z "/>
        </symbol>
        <symbol id="gC1B12BA8F6B6D85D232A7278892B02C7" overflow="visible">
            <path d="M 0 0m 0.946 1.342 c 0 -0.913 -0.12099999 -0.957 -0.737 -1.001 c -0.065999985 -0.065999985 -0.065999985 -0.297 0 -0.36299998 c 0.36300004 0.011 0.737 0.022 1.177 0.022 c 0.385 0 0.748 -0.011 1.001 -0.022 c 0.065999985 0.066 0.065999985 0.297 0 0.36299998 c -0.4510001 0.044 -0.57200015 0.088 -0.57200015 1.001 v 0.957 c 0.20899999 -0.010999918 0.36300004 -0.022000074 0.47300017 -0.055000067 c 0.12099981 -0.08800006 0.21999979 -0.18700004 0.35199976 -0.36299992 l 0.8030002 -1.0780001 c 0.319 -0.42899996 0.45099998 -0.638 0.4619999 -0.77 c 0 -0.033 0.010999918 -0.055 0.04399991 -0.055 c 0.22000027 0.011 0.4619999 0.022 0.68200016 0.022 c 0.34100008 0 0.68200016 -0.011 0.90199995 -0.022 c 0.065999985 0.066 0.065999985 0.297 0 0.36299998 c -0.37400007 0.044 -0.64900017 0.088 -0.9460001 0.46199998 l -1.4519999 1.826 c -0.04399991 0.055000067 -0.0769999 0.09899998 -0.0769999 0.15400004 c 0 0.04399991 0 0.065999985 0.04399991 0.109999895 l 0.9680002 1.0010002 c 0.32999992 0.35199976 0.7149997 0.44000006 1.1549997 0.48399973 c 0.065999985 0.065999985 0.065999985 0.2970004 0 0.3630004 c -0.25299978 -0.011000156 -0.5609999 -0.022000313 -0.9569998 -0.022000313 c -0.41800022 0 -0.82500005 0.011000156 -1.0780001 0.022000313 c -0.065999985 -0.065999985 -0.065999985 -0.2970004 0 -0.3630004 c 0.61599994 -0.043999672 0.352 -0.4289999 0.25300002 -0.5609999 c -0.25300002 -0.319 -0.5940001 -0.69299984 -0.8800001 -0.90199995 c -0.24199986 -0.17599988 -0.53900003 -0.3080001 -0.748 -0.34100008 v 3.8390002 c 0 0.7149997 0.04400003 1.1549997 0.04400003 1.1549997 c 0 0.07700014 -0.04400003 0.11000013 -0.143 0.11000013 c -0.27499998 -0.11000013 -1.0999999 -0.26399994 -1.54 -0.29699993 c -0.022 -0.0880003 0 -0.26399994 0.066 -0.32999992 c 0.033000007 0 0.066 0 0.09899999 0 c 0.484 -0.032999992 0.605 -0.032999992 0.605 -0.90199995 Z "/>
        </symbol>
        <symbol id="g25F69C89BBA58725CE230A03CED242D2" overflow="visible">
            <path d="M 0 0m 4.246 1.023 c -0.40699983 -0.41799998 -0.72599983 -0.594 -1.3639998 -0.594 c -0.3959999 0 -0.85800004 0.23099998 -1.199 0.79199994 c -0.22000003 0.36300004 -0.352 0.86899996 -0.352 1.507 l 2.926 -0.021999836 c 0.13199997 0 0.20900011 0.065999985 0.20900011 0.1869998 c 0 0.924 -0.32999992 1.9140003 -1.8590002 1.9140003 c -0.9569999 0 -2.1999998 -0.9130001 -2.1999998 -2.5850003 c 0 -0.61599994 0.15399998 -1.2099999 0.517 -1.6279999 c 0.37399995 -0.44 0.8909999 -0.704 1.6829998 -0.704 c 0.8360002 0 1.4300003 0.385 1.8699999 0.957 c -0.032999992 0.110000014 -0.09899998 0.16499996 -0.23099995 0.176 Z m -2.882 2.079 c 0.20899999 1.2429998 0.979 1.3419998 1.2429999 1.3419998 c 0.41800022 0 0.9130001 -0.23099995 0.9130001 -1.1549997 c 0 -0.09899998 -0.04399991 -0.15400004 -0.16499996 -0.15400004 Z "/>
        </symbol>
        <symbol id="g6B3EBD7FB8981FB09E8A8B4A29A05AFC" overflow="visible">
            <path d="M 0 0m 0.528 1.518 c 0.04400003 -0.53900003 0.07700002 -1.056 0.07700002 -1.518 c 0.109999955 0.022 0.21999997 0.033 0.27499998 0.033 c 0.07700002 0 0.143 0 0.22000003 -0.022 c 0.29699993 -0.077 0.594 -0.121 1.001 -0.121 c 0.61599994 0 1.7489998 0.297 1.7489998 1.386 c 0 0.7479999 -0.53900003 1.188 -1.287 1.463 c -0.65999997 0.25300002 -1.1 0.41799998 -1.1 1.023 c 0 0.45099974 0.39600003 0.704 0.7700001 0.704 c 0.24199986 0 0.8799999 -0.0880003 1.023 -1.023 c 0.065999985 -0.065999985 0.286 -0.055000067 0.352 0.010999918 c 0.032999992 0.3959999 0.05499983 0.803 0.065999985 1.1659999 c -0.34100008 0.055000305 -0.86899996 0.20900011 -1.441 0.20900011 c -0.814 0 -1.5510001 -0.5279999 -1.5510001 -1.2320001 c 0 -0.803 0.36299998 -1.1439998 1.21 -1.4959998 c 0.9130001 -0.37400007 1.122 -0.605 1.122 -1.0780001 c 0 -0.53900003 -0.5279999 -0.77 -0.93499994 -0.77 c -0.42900002 0 -0.671 0.143 -0.781 0.26400003 c -0.24199998 0.25299996 -0.36299998 0.7369999 -0.42899996 1.0120001 c -0.066000044 0.065999985 -0.27500004 0.054999948 -0.34100002 -0.011000037 Z "/>
        </symbol>
        <symbol id="g8DFC1D5A957BFC9599B4D85C178B9AD3" overflow="visible">
            <path d="M 0 0m 0.781 4.829 c -0.022000015 0 -0.066000044 -0.04400015 -0.066000044 -0.065999985 c -0.010999978 -0.4949999 -0.065999985 -0.8800001 -0.16499996 -1.4190001 c 0.09899998 -0.04399991 0.231 -0.065999985 0.36299998 -0.032999992 c 0.22000003 0.803 0.561 0.99000025 0.89100003 1.0009999 l 1.4079999 0.032999992 c -0.7479999 -1.2539997 -1.8479999 -2.8379998 -2.7059999 -3.9929998 c -0.09899998 -0.132 -0.09899998 -0.16499999 -0.09899998 -0.22 c 0 -0.077 0.088 -0.132 0.25299996 -0.132 l 3.4320002 -0.033 c 0.13199997 0.37399998 0.2750001 0.946 0.35199976 1.4959999 c -0.065999985 0.04400003 -0.19799995 0.066000104 -0.32999992 0.066000104 l -0.1539998 -0.319 c -0.2750001 -0.58300006 -0.50600004 -0.82500005 -1.0780001 -0.836 h -1.4629999 c 0.814 1.0339999 1.9580001 2.761 2.6399999 3.883 c 0.16499996 0.2750001 0.19799995 0.36299992 0.19799995 0.40700006 c 0 0.04400015 -0.05499983 0.07700014 -0.13199997 0.07700014 c -0.05499983 0 -0.36299992 -0.022000313 -0.6819999 -0.022000313 h -2.013 c -0.352 0 -0.48399997 0.055000305 -0.6489999 0.11000013 Z "/>
        </symbol>
        <symbol id="g3CC3102D01A26978540B418EFF3BBE4D" overflow="visible">
            <path d="M 0 0m 0.484 2.772 c 0 -0.49500012 0.044 -3.036 2.332 -5.016 c 0.109999895 0.022000074 0.19799995 0.09899998 0.23099995 0.18700004 c -0.36299992 0.41799998 -1.65 1.9359999 -1.65 4.829 c 0 2.893 1.298 4.4110003 1.65 4.807 c -0.032999992 0.11000013 -0.109999895 0.1869998 -0.23099995 0.19799995 c -1.309 -1.1220002 -2.332 -2.959 -2.332 -5.005 Z "/>
        </symbol>
        <symbol id="g523F7EF6A98CA34D23B1B0C73A3E0F04" overflow="visible">
            <path d="M 0 0m 2.794 2.772 c 0 0.4949999 -0.04399991 3.036 -2.3319998 5.016 c -0.110000014 -0.022000313 -0.19800001 -0.09899998 -0.231 -0.18700027 c 0.36299998 -0.41799974 1.6500001 -1.9359999 1.6500001 -4.8289995 c 0 -2.8930001 -1.2980001 -4.4110003 -1.6500001 -4.807 c 0.032999992 -0.109999895 0.109999985 -0.1869998 0.231 -0.19799995 c 1.309 1.1220001 2.3319998 2.959 2.3319998 5.005 Z "/>
        </symbol>
        <symbol id="gEEBB457E25465403BC8779214129FA07" overflow="visible">
            <path d="M 0 0m 3.388 2.772 l 1.3530002 1.3529999 l -0.38500023 0.38499975 l -1.342 -1.3529997 l -1.342 1.3529997 l -0.3959999 -0.38499975 l 1.3529999 -1.3529999 l -1.3529999 -1.3420001 l 0.3959999 -0.385 l 1.342 1.3420001 l 1.342 -1.3420001 l 0.38500023 0.385 Z "/>
        </symbol>
        <symbol id="gFDC8B69DB71C675D4462B9D3649A13EC" overflow="visible">
            <path d="M 0 0m 7.2929997 1.276 c 0.055000305 -0.89100003 0.011000156 -0.902 -0.704 -0.93500006 c -0.065999985 -0.065999985 -0.065999985 -0.297 0 -0.36299998 c 0.40700006 0.011 0.8470001 0.022 1.177 0.022 c 0.32999992 0 0.83600044 -0.011 1.1990004 -0.022 c 0.065999985 0.066 0.065999985 0.297 0 0.36299998 c -0.74800014 0.033000022 -0.78100014 0.07699999 -0.8470001 0.99 l -0.32999992 4.631 c -0.04400015 0.59399986 0.01099968 0.74800014 0.7589998 0.7920003 c 0.065999985 0.065999985 0.065999985 0.29699993 0 0.36299992 l -1.441 -0.022000313 l -2.3319998 -5.5769997 c -0.04400015 -0.110000014 -0.07700014 -0.15400004 -0.09899998 -0.15400004 c -0.022000313 0 -0.055000305 0.055000067 -0.0880003 0.143 l -2.2549999 5.588 l -1.595 0.022000313 c -0.065999985 -0.065999985 -0.065999985 -0.29699993 0 -0.36299992 c 0.75900006 -0.04400015 0.82500005 -0.06600046 0.748 -0.8910003 l -0.44000006 -4.532 c -0.065999985 -0.65999997 -0.19799995 -0.93499994 -0.8249999 -0.99 c -0.066 -0.065999985 -0.066 -0.297 0 -0.36299998 c 0.33 0.011 0.68200004 0.022 0.946 0.022 c 0.26399994 0 0.704 -0.011 1.034 -0.022 c 0.065999985 0.066 0.065999985 0.297 0 0.36299998 c -0.7260001 0.055000007 -0.781 0.396 -0.7260001 1.0120001 l 0.41799998 4.411 h 0.022000074 l 2.277 -5.709 c 0.032999992 -0.077 0.09899998 -0.16499999 0.16499996 -0.16499999 c 0.065999985 0 0.11000013 0.077 0.1539998 0.16499999 l 2.4750004 5.8190002 h 0.021999836 Z "/>
        </symbol>
        <symbol id="g444845D5AE913EE257C23A1D77DCBE80" overflow="visible">
            <path d="M 0 0m 1.045 1.342 c 0 -0.913 -0.12099993 -0.968 -0.79199994 -1.001 c -0.065999985 -0.065999985 -0.065999985 -0.297 0 -0.36299998 c 0.38500002 0.011 0.79199994 0.022 1.232 0.022 c 0.43999994 0 0.8579999 -0.011 1.2210001 -0.022 c 0.065999985 0.066 0.065999985 0.297 0 0.36299998 c -0.671 0.033000022 -0.79200006 0.088 -0.79200006 1.001 v 5.071 c 0 0.7149997 0.04399991 1.1549997 0.04399991 1.1549997 c 0 0.07700014 -0.04399991 0.11000013 -0.143 0.11000013 c -0.27499998 -0.11000013 -1.0999999 -0.26399994 -1.54 -0.29699993 c -0.022000015 -0.0880003 0 -0.26399994 0.065999985 -0.32999992 c 0.638 -0.04400015 0.704 -0.07700014 0.704 -0.90199995 Z "/>
        </symbol>
        <symbol id="gBD2B8A190A2023EE87190265C91826F8" overflow="visible">
            <path d="M 0 0m 2.233 4.378 c 0.065999985 0.065999985 0.065999985 0.2970004 0 0.3630004 c -0.33000004 -0.011000156 -0.71500003 -0.022000313 -1.1110001 -0.022000313 c -0.41799998 0 -0.715 0.011000156 -1.0009999 0.022000313 c -0.066 -0.065999985 -0.066 -0.2970004 0 -0.3630004 c 0.517 -0.05499983 0.638 -0.16499996 0.869 -0.73699975 l 1.441 -3.553 c 0.065999985 -0.154 0.15400004 -0.22 0.26399994 -0.22 c 0.09899998 0 0.18700004 0.066 0.26399994 0.242 l 1.1110003 2.706 l 1.1329999 -2.728 c 0.065999985 -0.154 0.1539998 -0.22 0.26399994 -0.22 c 0.09899998 0 0.1869998 0.066 0.25299978 0.231 l 1.441 3.487 c 0.17600012 0.4510002 0.3630004 0.7589998 0.92400026 0.7919998 c 0.065999985 0.065999985 0.065999985 0.2970004 0 0.3630004 c -0.22000027 -0.011000156 -0.4619999 -0.022000313 -0.7920003 -0.022000313 c -0.32999992 0 -0.7919998 0.011000156 -1.1219997 0.022000313 c -0.065999985 -0.065999985 -0.065999985 -0.2970004 0 -0.3630004 c 0.8249998 -0.043999672 0.71500015 -0.36299992 0.5609999 -0.7479999 l -0.9239998 -2.2879999 c -0.11000013 -0.27499998 -0.15400028 -0.27499998 -0.2420001 -0.04400003 l -0.9460001 2.409 c -0.20900011 0.51699996 -0.1869998 0.6270001 0.3959999 0.67099977 c 0.065999985 0.065999985 0.065999985 0.2970004 0 0.3630004 c -0.32999992 -0.011000156 -0.77 -0.022000313 -1.0999999 -0.022000313 c -0.27499986 0 -0.638 0.011000156 -0.96799994 0.022000313 c -0.065999985 -0.065999985 -0.065999985 -0.2970004 0 -0.3630004 c 0.51699996 -0.043999672 0.6489999 -0.36299992 0.8470001 -0.8579998 l 0.065999985 -0.17600012 l -0.77 -1.9469999 c -0.14300013 -0.36299992 -0.1650002 -0.37399995 -0.3080001 -0.021999955 l -0.88 2.266 c -0.20899999 0.5280001 -0.19799995 0.70399976 0.33000004 0.73699975 Z "/>
        </symbol>
        <symbol id="g4DD66DF811BB9B1544E58F002DD133BF" overflow="visible">
            <path d="M 0 0m 3.674 0.55 c 0.055000067 0.04399997 0.15400004 0.065999985 0.16499996 -0.011000037 c 0.032999992 -0.26399997 0.12100005 -0.649 0.12100005 -0.649 c 0.08799982 -0.033000007 0.14300013 -0.022 0.20900011 0 c 0.24199963 0.198 0.62699986 0.36299998 1.2979999 0.44 c 0.065999985 0.066000015 0.065999985 0.231 0 0.297 c -0.704 0.055000007 -0.803 0.264 -0.803 0.803 v 4.9830003 c 0 0.7149997 0.04400015 1.1549997 0.04400015 1.1549997 c 0 0.07700014 -0.04400015 0.11000013 -0.14300013 0.11000013 c -0.2750001 -0.11000013 -1.1000001 -0.26399994 -1.54 -0.29699993 c -0.022000074 -0.0880003 0 -0.26399994 0.065999985 -0.32999992 c 0.032999992 0 0.065999985 0 0.09899998 0 c 0.48399997 -0.032999992 0.605 -0.032999992 0.605 -0.90199995 v -1.408 c 0 -0.07700014 -0.022000074 -0.09899998 -0.09899998 -0.09899998 c -0.04400015 0 -0.49500012 0.1869998 -0.85800004 0.1869998 c -0.7260001 0 -1.21 -0.2420001 -1.6500001 -0.65999985 c -0.473 -0.47300005 -0.75899994 -1.1220002 -0.75899994 -1.9360001 c 0 -1.353 0.6819999 -2.343 1.87 -2.343 c 0.4289999 0 0.83599997 0.22 1.375 0.66 Z m 0.12100005 0.81399995 c 0 -0.20899999 -0.022000074 -0.29699993 -0.17600012 -0.42899996 c -0.40700006 -0.352 -0.75900006 -0.528 -1.0339999 -0.528 c -0.5940001 0 -1.21 0.649 -1.21 2.024 c 0 0.79200006 0.15400004 1.2319999 0.319 1.463 c 0.34100008 0.5169997 0.803 0.5499997 1.023 0.5499997 c 0.3959999 0 0.671 -0.14299965 0.89100003 -0.3959999 c 0.15400004 -0.17599988 0.18700004 -0.25299978 0.18700004 -0.59399986 Z "/>
        </symbol>
        <symbol id="gD1946A413A4D53ED6E23AD42C4E7F843" overflow="visible">
            <path d="M 0 0m 1.837 3.146 c 0 0.23100019 0.09899998 0.36300015 0.18699992 0.46200013 c 0.41799998 0.40699983 0.9790001 0.6489999 1.408 0.6489999 c 0.22000003 0 0.45099998 -0.14300013 0.58299994 -0.3959999 c 0.11000013 -0.22000003 0.13199997 -0.5170002 0.13199997 -0.8470001 v -1.6719999 c 0 -0.902 -0.10999966 -0.946 -0.6819999 -1.001 c -0.05499983 -0.065999985 -0.05499983 -0.297 0 -0.36299998 c 0.3080001 0.011 0.6819999 0.022 1.122 0.022 c 0.44000006 0 0.803 -0.011 1.1659999 -0.022 c 0.055000305 0.066 0.055000305 0.297 0 0.36299998 c -0.6159997 0.055000007 -0.737 0.09900001 -0.737 1.001 v 1.6389999 c 0 0.605 -0.043999672 1.144 -0.29699993 1.474 c -0.1869998 0.2420001 -0.5279999 0.37400007 -0.91299987 0.37400007 c -0.53900003 0 -1.1990001 -0.14300013 -1.87 -0.89100003 c 0 -0.010999918 -0.011000037 -0.010999918 -0.021999955 -0.022000074 c -0.032999992 -0.04399991 -0.08800006 -0.109999895 -0.08800006 0.022000074 l 0.011000037 2.4750001 c 0 0.7149997 0.04400003 1.1549997 0.04400003 1.1549997 c 0 0.07700014 -0.04400003 0.11000013 -0.143 0.11000013 c -0.2750001 -0.11000013 -1.1 -0.26399994 -1.5400001 -0.29699993 c -0.022 -0.0880003 0 -0.26399994 0.066 -0.32999992 c 0.032999992 0 0.065999985 0 0.09900001 0 c 0.484 -0.032999992 0.605 -0.032999992 0.605 -0.90199995 v -4.807 c 0 -0.913 -0.13200003 -0.957 -0.77 -1.001 c -0.066 -0.065999985 -0.066 -0.297 0 -0.36299998 c 0.36299998 0.011 0.77 0.022 1.21 0.022 c 0.41799998 0 0.7809999 -0.011 1.089 -0.022 c 0.065999985 0.066 0.065999985 0.297 0 0.36299998 c -0.561 0.044 -0.65999997 0.088 -0.65999997 1.001 Z "/>
        </symbol>
        <symbol id="g62BFACB1B22D15D6051B5E911244AC20" overflow="visible">
            <path d="M 0 0m 6.116 5.632 v -3.597 c 0 -0.20900011 0 -0.33000004 -0.07700014 -0.33000004 c -0.04400015 0 -0.20900011 0.19799995 -0.5279999 0.6049999 l -3.7730002 4.785 l -1.485 0.022000313 c -0.065999985 -0.065999985 -0.065999985 -0.29699993 0 -0.36299992 c 0.47300002 -0.032999992 0.803 -0.41800022 0.86899996 -0.704 v -4.5870004 c 0 -0.979 -0.18699998 -1.045 -0.957 -1.122 c -0.06599999 -0.065999985 -0.06599999 -0.297 0 -0.36299998 c 0.47300002 0.011 0.96800005 0.022 1.232 0.022 c 0.25300002 0 0.75899994 -0.011 1.2210001 -0.022 c 0.065999985 0.066 0.065999985 0.297 0 0.36299998 c -0.77 0.07699999 -0.957 0.12100002 -0.957 1.122 v 3.3660002 c 0 0.37400007 0 0.53900003 0.08799994 0.53900003 c 0.065999985 0 0.18700004 -0.12100029 0.37399995 -0.36299992 l 3.839 -4.8510003 c 0.12100029 -0.16499999 0.26399994 -0.264 0.44000006 -0.264 c 0.1539998 0 0.25299978 0.132 0.25299978 0.34100002 v 5.401 c 0 0.9790001 0.18700027 1.0450001 0.95700026 1.1220002 c 0.065999985 0.065999985 0.065999985 0.29699993 0 0.36299992 c -0.4510002 -0.011000156 -0.96799994 -0.022000313 -1.2319999 -0.022000313 c -0.23099995 0 -0.737 0.011000156 -1.2210002 0.022000313 c -0.065999985 -0.065999985 -0.065999985 -0.29699993 0 -0.36299992 c 0.77 -0.07700014 0.95700026 -0.12100029 0.95700026 -1.1220002 Z "/>
        </symbol>
        <symbol id="g9DF62F7262AC2ECF7184C2B7AECE88FB" overflow="visible">
            <path d="M 0 0m 2.387 -0.11 c 0.4289999 0 0.94599986 0.22 1.4849999 0.66 c 0.055000067 0.04399997 0.15400004 0.065999985 0.1650002 -0.011000037 c 0.032999992 -0.27499998 0.12099981 -0.649 0.12099981 -0.649 c 0.08799982 -0.033000007 0.14300013 -0.022 0.20900011 0 c 0.2420001 0.198 0.62699986 0.36299998 1.2979999 0.44 c 0.065999985 0.066000015 0.065999985 0.231 0 0.297 c -0.704 0.055000007 -0.803 0.264 -0.803 0.803 v 2.112 c 0 0.32999992 0.04400015 1.1330001 0.04400015 1.1330001 c 0 0.032999992 -0.032999992 0.065999985 -0.0880003 0.065999985 c -0.05499983 -0.011000156 -0.21999979 -0.022000313 -0.38499975 -0.022000313 c -0.35200024 0 -0.74800014 0.011000156 -1.1220002 0.022000313 c -0.065999985 -0.065999985 -0.065999985 -0.2970004 0 -0.3630004 c 0.53900003 -0.032999992 0.68200016 -0.16499996 0.68200016 -0.8909998 v -2.1230001 c 0 -0.20899999 -0.022000074 -0.29699993 -0.17600012 -0.42899996 c -0.40699983 -0.352 -0.8249998 -0.528 -1.0999999 -0.528 c -0.32999992 0 -0.88 0.15399998 -0.88 1.1329999 v 2.002 c 0 0.32999992 0.04400003 1.1330001 0.04400003 1.1330001 c 0 0.032999992 -0.032999992 0.065999985 -0.08800006 0.065999985 c -0.054999948 -0.011000156 -0.22000003 -0.022000313 -0.385 -0.022000313 c -0.352 0 -0.748 0.011000156 -1.122 0.022000313 c -0.066000015 -0.065999985 -0.066000015 -0.2970004 0 -0.3630004 c 0.528 -0.043999672 0.682 -0.16499996 0.682 -0.8799999 v -2.112 c 0 -0.75900006 0.32999998 -1.496 1.4190001 -1.496 Z "/>
        </symbol>
        <symbol id="g2CDB44E9EFC9D60B59AB2EC00DE8BF10" overflow="visible">
            <path d="M 0 0m 1.837 4.334 c -0.065999985 -0.065999985 -0.110000014 -0.04400015 -0.110000014 0.05499983 v 2.0240002 c 0 0.7149997 0.04400003 1.1549997 0.04400003 1.1549997 c 0 0.07700014 -0.04400003 0.11000013 -0.143 0.11000013 c -0.27499998 -0.11000013 -1.1 -0.26399994 -1.54 -0.29699993 c -0.022 -0.0880003 0 -0.26399994 0.066 -0.32999992 c 0.033000007 0 0.066 0 0.09899999 0 c 0.484 -0.032999992 0.605 -0.032999992 0.605 -0.90199995 v -5.368 c 0 -0.42900002 -0.010999978 -0.62700003 -0.04399997 -0.781 c 0.055000007 -0.088 0.110000014 -0.132 0.24199998 -0.132 c 0.065999985 0.066 0.176 0.16499999 0.26399994 0.264 c 0.110000014 0.132 0.17600012 0.132 0.29700005 0.032999992 c 0.25300002 -0.20899999 0.58300006 -0.27499998 0.96800005 -0.27499998 c 1.122 0 2.4309998 1.023 2.4309998 2.7719998 c 0 1.3420002 -0.9899998 2.167 -1.9469998 2.167 c -0.47300005 0 -0.89100003 -0.1869998 -1.232 -0.4949999 Z m 0.07700002 -0.34100008 c 0.286 0.25299978 0.61599994 0.35199976 0.93499994 0.35199976 c 0.671 0 1.2210002 -0.8139999 1.2210002 -1.8809998 c 0 -1.254 -0.5060003 -2.2 -1.5510001 -2.2 c -0.34100008 0 -0.572 0.24199998 -0.79200006 0.517 v 2.75 c 0 0.23100019 0.04400003 0.34100008 0.18700004 0.46200013 Z "/>
        </symbol>
        <symbol id="g52F94149B30B9519491207BDBF38E46E" overflow="visible">
            <path d="M 0 0m 0.451 2.2549999 c 0 -1.1219999 0.748 -2.3649998 2.31 -2.3649998 c 0.704 0 1.2430003 0.25300002 1.6169999 0.616 c 0.49500036 0.48400003 0.71500015 1.177 0.71500015 1.848 c 0 1.1439998 -0.62699986 2.475 -2.31 2.475 c -0.7260001 0 -1.32 -0.29699993 -1.727 -0.77 c -0.39600003 -0.47300005 -0.605 -1.1110001 -0.605 -1.8040001 Z m 2.167 2.189 c 0.94599986 0 1.5289998 -0.8579998 1.5289998 -2.4419997 c 0 -1.3860002 -0.7149999 -1.7270001 -1.2319999 -1.7270001 c -1.1439999 0 -1.518 1.386 -1.518 2.2329998 c 0 0.957 0.23100007 1.9359999 1.2210001 1.9359999 Z "/>
        </symbol>
        <symbol id="g90E1B01636FBED1CFCE1EB7F1B2EEB0C" overflow="visible">
            <path d="M 0 0m 1.925 1.342 v 2.948 h 1.023 c 0.09899998 0 0.25300002 0.04400015 0.25300002 0.14300013 v 0.21999979 c 0 0.04400015 -0.032999992 0.065999985 -0.08800006 0.065999985 h -1.188 v 0.62700033 c 0 1.6939998 0.50600004 1.9579997 0.86899996 1.9579997 c 0.33000016 0 0.50600004 -0.13199997 0.6600001 -0.5169997 c 0.08800006 -0.19800043 0.20899987 -0.35200024 0.44000006 -0.35200024 c 0.1869998 0 0.45099974 0.23099995 0.45099974 0.4510002 c 0 0.1869998 -0.12099981 0.38499975 -0.35199976 0.5609999 c -0.286 0.19799995 -0.572 0.23099995 -0.99 0.23099995 c -0.924 0 -1.947 -0.803 -1.947 -2.519 v -0.44000006 h -0.561 c -0.19800001 0 -0.25300002 -0.13199997 -0.25300002 -0.21999979 v -0.14300013 c 0 -0.05499983 0.0109999925 -0.065999985 0.054999992 -0.065999985 h 0.759 v -2.948 c 0 -0.913 -0.176 -0.957 -0.77 -1.001 c -0.066000015 -0.065999985 -0.066000015 -0.297 0 -0.36299998 c 0.385 0.011 0.77 0.022 1.21 0.022 c 0.43999994 0 0.96799994 -0.011 1.3529999 -0.022 c 0.065999985 0.066 0.065999985 0.297 0 0.36299998 c -0.85800004 0.044 -0.924 0.088 -0.924 1.001 Z "/>
        </symbol>
        <symbol id="gA2CCDA6D35359E2332180ADE5D862602" overflow="visible">
            <path d="M 0 0m 3.168 1.342 v 3.817 c 0 0.65999985 0.010999918 1.3309999 0.032999992 1.474 c 0 0.05499983 -0.022000074 0.05499983 -0.065999985 0.05499983 c -0.605 -0.3739996 -1.188 -0.6489997 -2.1560001 -1.0999999 c 0.022000074 -0.12099981 0.065999985 -0.23099995 0.16500008 -0.29699993 c 0.5059999 0.20900011 0.7479999 0.2750001 0.957 0.2750001 c 0.18700004 0 0.22000003 -0.26399994 0.22000003 -0.638 v -3.586 c 0 -0.913 -0.29700017 -0.968 -1.0670002 -1.001 c -0.065999985 -0.065999985 -0.065999985 -0.297 0 -0.36299998 c 0.53900003 0.011 0.93499994 0.022 1.529 0.022 c 0.5279999 0 0.79200006 -0.011 1.342 -0.022 c 0.065999985 0.066 0.065999985 0.297 0 0.36299998 c -0.77 0.033000022 -0.957 0.088 -0.957 1.001 Z "/>
        </symbol>
        <symbol id="gCA6900B589667EAA5A7266372A13F109" overflow="visible">
            <path d="M 0 0m 0.627 0.473 c 0 -0.319 0.264 -0.583 0.58300006 -0.583 c 0.319 0 0.58299994 0.264 0.58299994 0.583 c 0 0.319 -0.26399994 0.583 -0.58299994 0.583 c -0.31900007 0 -0.58300006 -0.264 -0.58300006 -0.583 Z "/>
        </symbol>
        <symbol id="g8F7DCDDCA4FFFF614CB0E92B6931681F" overflow="visible">
            <path d="M 0 0m 4.323 5.335 c 0 0.7919998 -0.61599994 1.375 -1.694 1.375 c -1.122 0 -1.8479999 -0.671 -1.8479999 -1.5180001 c 0 -0.6159997 0.29699993 -1.0669999 0.96799994 -1.4849999 l 0.28600013 -0.17600012 c -0.31900012 -0.16499996 -0.61600006 -0.36299992 -0.89100003 -0.605 c -0.45100003 -0.3959999 -0.6380001 -0.8909998 -0.6380001 -1.3199999 c 0 -1.122 0.792 -1.716 1.958 -1.716 c 1.441 0 2.1450002 1.056 2.1450002 1.892 c 0 0.63800013 -0.2750001 1.199 -0.8580003 1.551 l -0.7809999 0.47300005 c 0.51699996 0.25300002 1.3529999 0.82500005 1.3529999 1.529 Z m -1.8369999 -5.06 c -0.49500012 0 -1.243 0.341 -1.243 1.331 c 0 0.33000004 0.143 1.1000001 1.089 1.727 l 0.51699996 -0.30799985 c 0.6819999 -0.41800022 0.957 -0.9350002 0.957 -1.463 c 0 -1.1 -0.82500005 -1.2870001 -1.3199999 -1.2870001 Z m 0.08799982 6.0499997 c 0.71500015 0 0.9790001 -0.47300005 0.9790001 -0.9789996 c 0 -0.59400034 -0.58299994 -1.0890002 -0.8799999 -1.309 l -0.34100008 0.20899963 c -0.6930001 0.4510002 -0.77 0.8140001 -0.77 1.1550002 c 0 0.50600004 0.352 0.9239998 1.0119998 0.9239998 Z "/>
        </symbol>
        <symbol id="gEB22A8F781F797C1625BBD7FE47881EC" overflow="visible">
            <path d="M 0 0m 1.144 5.753 v -4.411 c 0 -0.913 -0.18700004 -0.968 -0.957 -1.001 c -0.06600001 -0.065999985 -0.06600001 -0.297 0 -0.36299998 c 0.49499997 0.011 1.0339999 0.022 1.43 0.022 c 0.3850001 0 1.034 -0.011 1.584 -0.022 c 0.065999985 0.066 0.065999985 0.297 0 0.36299998 c -0.85800004 0.044 -1.122 0.088 -1.122 1.001 v 1.8699999 c 0.2420001 -0.0769999 0.50600004 -0.109999895 0.89100003 -0.109999895 c 2.002 0 2.607 1.3089998 2.607 2.2440002 c 0 0.6489997 -0.42900038 1.8259997 -2.4640002 1.8259997 c -0.41799998 0 -1.0669999 -0.07700014 -1.507 -0.07700014 c -0.40699995 0 -0.979 0.011000156 -1.4189999 0.022000313 c -0.06600001 -0.065999985 -0.06600001 -0.29699993 0 -0.36299992 c 0.77 -0.032999992 0.957 -0.0880003 0.957 -1.0010004 Z m 0.93499994 0.34100008 c 0 0.31900024 0.16499996 0.704 0.957 0.704 c 0.75900006 0 1.5179999 -0.25299978 1.5179999 -1.6500001 c 0 -1.1879997 -0.572 -1.6719997 -1.6389999 -1.6719997 c -0.2750001 0 -0.7149999 0.021999836 -0.83599997 0.05499983 Z "/>
        </symbol>
        <symbol id="gA4BA3B9C7DD0895DE21BD8AE6900F444" overflow="visible">
            <path d="M 0 0m 1.716 4.048 c -0.010999918 0.32999992 -0.032999992 0.6160002 -0.08799994 0.7260003 c -0.022000074 0.05499983 -0.04400003 0.08799982 -0.13199997 0.08799982 c -0.3080001 -0.12099981 -0.59400004 -0.21999979 -1.353 -0.31900024 c -0.022000007 -0.065999985 0 -0.24199963 0.021999985 -0.3079996 c 0.594 -0.055000305 0.71500003 -0.11000013 0.71500003 -0.74800014 v -4.697 c 0 -0.91299987 -0.12099999 -0.96799994 -0.792 -1.0009999 c -0.066 -0.065999985 -0.066 -0.29699993 0 -0.36299992 c 0.385 0.010999918 0.792 0.021999836 1.2319999 0.021999836 c 0.44000006 0 0.9680002 -0.010999918 1.3310001 -0.021999836 c 0.065999985 0.065999985 0.065999985 0.29699993 0 0.36299992 c -0.781 0.04399991 -0.90200007 0.08800006 -0.90200007 1.0009999 v 1.1880001 c 0 0.143 0.04400003 0.132 0.15400004 0.088 c 0.27499998 -0.11 0.6049999 -0.176 0.9569999 -0.176 c 0.6160002 0 1.1660001 0.187 1.6169999 0.616 c 0.5170002 0.506 0.8140001 1.188 0.8140001 2.079 c 0 1.1659999 -0.8249998 2.244 -1.947 2.244 c -0.5059998 0 -1.0669999 -0.32999992 -1.5069999 -0.8249998 c -0.065999985 -0.06600022 -0.110000014 -0.06600022 -0.12100005 0.043999672 Z m 0.20899999 -0.40699983 c 0.286 0.352 0.79200006 0.6819999 1.1110001 0.6819999 c 0.704 0 1.3089998 -0.79200006 1.3089998 -2.0349998 c 0 -0.90200007 -0.31899977 -2.0240002 -1.5509999 -2.0240002 c -0.19799995 0 -0.58299994 0.055000007 -0.7809999 0.231 c -0.22000003 0.19800001 -0.26400006 0.264 -0.26400006 0.65999997 v 2.002 c 0 0.23099995 0.04400003 0.32999992 0.176 0.48399997 Z "/>
        </symbol>
        <symbol id="g2EE59D2C8E5C69BB66E163836CD48E2F" overflow="visible">
            <path d="M 0 0m 7.2269998 4.862 c -0.671 0 -1.2539997 -0.32999992 -1.7489996 -0.9790001 c -0.09899998 0.64900017 -0.5170002 0.9790001 -1.2650003 0.9790001 c -0.6489999 0 -1.2099998 -0.28599977 -1.6719999 -0.86899996 c -0.08799982 0.48399973 -0.4729998 0.86899996 -1.0339999 0.86899996 c -0.45099998 0 -0.78099996 -0.36299992 -1.012 -1.0780001 c -0.12099999 -0.352 -0.176 -0.5609999 -0.176 -0.62699986 c 0 -0.09899998 0.055000007 -0.15400004 0.176 -0.15400004 c 0.055000007 0 0.088 0.010999918 0.12099999 0.032999992 c 0.055000007 0.09899998 0.088 0.17599988 0.110000014 0.25300002 c 0.19800001 0.83599997 0.45100003 1.2539997 0.74799997 1.2539997 c 0.19799995 0 0.29700005 -0.1539998 0.29700005 -0.4619999 c 0 -0.14299989 -0.055000067 -0.43999982 -0.176 -0.8909998 l -0.62700003 -2.497 c -0.04399997 -0.13200003 -0.09899998 -0.418 -0.09899998 -0.48400003 c 0 -0.22 0.12099999 -0.32999998 0.35199994 -0.32999998 c 0.22000003 0 0.37400007 0.11 0.45099998 0.32999998 c 0.011000037 0.055000007 0.08800006 0.32999998 0.20900011 0.803 l 0.23099995 0.979 l 0.32999992 1.254 c 0.12100005 0.25300002 0.3080001 0.50600004 0.5500002 0.77 c 0.31899977 0.35200024 0.7149999 0.5279999 1.1879997 0.5279999 c 0.36299992 0 0.53900003 -0.24199963 0.53900003 -0.7149997 c 0 -0.14300013 -0.05499983 -0.44000006 -0.16499996 -0.89100003 l -0.29699993 -1.2540001 c -0.07700014 -0.319 -0.25299978 -0.979 -0.34100008 -1.331 c -0.010999918 -0.07699999 -0.021999836 -0.12099999 -0.021999836 -0.143 c 0 -0.22 0.12099981 -0.32999998 0.36299992 -0.32999998 c 0.12099981 0 0.20900011 0.033 0.28599977 0.11 c 0.16500044 0.16499999 0.17600012 0.24200001 0.2420001 0.539 l 0.64900017 2.6069999 c 0.032999992 0.14299989 0.1869998 0.3959999 0.45099974 0.7479999 c 0.3300004 0.44000006 0.77 0.65999985 1.309 0.65999985 c 0.3630004 0 0.53900003 -0.24199963 0.53900003 -0.7149997 c 0 -0.42900014 -0.21999979 -1.2320001 -0.671 -2.409 c -0.09899998 -0.25300002 -0.14299965 -0.462 -0.14299965 -0.605 c 0 -0.53900003 0.4069996 -0.935 0.93499994 -0.935 c 0.4949999 0 0.8689995 0.275 1.144 0.825 c 0.22000027 0.44000006 0.32999992 0.737 0.32999992 0.88 c 0 0.09899998 -0.055000305 0.15400004 -0.17599964 0.15400004 c -0.07700062 -0.011000037 -0.15400028 -0.110000014 -0.20900059 -0.23100007 c -0.24199963 -0.86899996 -0.59399986 -1.309 -1.0669999 -1.309 c -0.14300013 0 -0.21999979 0.11 -0.21999979 0.319 c 0 0.16499996 0.065999985 0.407 0.19799995 0.74799997 c 0.4510002 1.1769999 0.6709995 1.9799999 0.6709995 2.3979998 c 0 0.7809999 -0.51699924 1.1990001 -1.2979999 1.1990001 Z "/>
        </symbol>
        <symbol id="g13E22B5426ADC2B260B67F26B33416C6" overflow="visible">
            <path d="M 0 0m 0.9163 3.2648 c 0.24639994 0 0.43119997 0.18479991 0.43119997 0.43120003 c 0 0.27719998 -0.14629996 0.42350006 -0.43119997 0.43120003 c 0.16940004 0.36189985 0.5544 0.6545 1.0548999 0.6545 c 0.6775999 0 1.1242001 -0.50820017 1.1242001 -1.1858001 c 0 -0.36960006 -0.13090014 -0.7238002 -0.40040016 -1.0703001 c -0.1308999 -0.17709994 -0.23099995 -0.30029988 -0.30029988 -0.36960006 l -1.8249 -1.8094999 c -0.10010001 -0.092400014 -0.08470002 -0.1155 -0.08470002 -0.3465 h 3.1724 l 0.23869991 1.4476 h -0.32340002 c -0.053900003 -0.4081 -0.11549997 -0.64680004 -0.18479991 -0.7007 c -0.03850007 -0.023100019 -0.27719998 -0.03850001 -0.7314999 -0.03850001 h -1.3090001 c 0.5159 0.45429993 0.9933001 0.86239994 1.4476 1.2243 c 0.34649992 0.2694999 0.59290004 0.50820005 0.7469001 0.71609986 c 0.23099995 0.30030012 0.34649992 0.6160002 0.34649992 0.94710016 c 0 0.47739983 -0.18479991 0.8547001 -0.56209993 1.1318998 c -0.3311 0.25409985 -0.7469001 0.38500023 -1.2397001 0.38500023 c -0.42349994 0 -0.7853999 -0.12319994 -1.1011 -0.3696003 c -0.3311 -0.26949978 -0.50049996 -0.60829973 -0.50049996 -1.0240998 c 0 -0.26180005 0.19250003 -0.45429993 0.4312 -0.45429993 Z "/>
        </symbol>
        <symbol id="g4AE8ECD7A6D56B08F357B6EBE8FC7F08" overflow="visible">
            <path d="M 0 0m 4.73 2.409 h -0.9130001 v 3.212 c 0 0.5500002 0 0.9790001 0.022000074 1.0669999 l -0.022000074 0.022000313 h -0.352 c -0.0769999 0 -0.13199997 -0.065999985 -0.17599988 -0.12100029 c -0.6930001 -0.84699965 -1.9690001 -2.6619997 -2.981 -4.2349997 c 0.032999992 -0.1650002 0.09900001 -0.46200013 0.429 -0.46200013 h 2.244 v -1.012 c 0 -0.506 -0.41799998 -0.506 -0.89100003 -0.53900003 c -0.065999985 -0.065999985 -0.065999985 -0.297 0 -0.36299998 c 0.352 0.011 0.79200006 0.022 1.2980001 0.022 c 0.4289999 0 0.8470001 -0.011 1.1989999 -0.022 c 0.065999985 0.066 0.065999985 0.297 0 0.36299998 c -0.53900003 0.044 -0.77 0.022000015 -0.77 0.53900003 v 1.012 h 0.7590003 c 0.1539998 0 0.31899977 0.20900011 0.31899977 0.34100008 c 0 0.109999895 -0.04400015 0.17599988 -0.16499996 0.17599988 Z m -1.7490001 3.1680002 v -3.1680002 h -2.1009998 c 0.561 0.90199995 1.3419999 2.1339998 2.1009998 3.1680002 Z "/>
        </symbol>
    </defs>
</svg>
